# 3ds Max Wavefront OBJ Exporter v0.97b - (c)2007 guruware
# File Created: 10.04.2016 14:39:11

#
# object Cube_Substance_Homemade_Original
#

v  -50.0000 50.0000 50.0000
v  50.0000 50.0000 50.0000
v  50.0000 50.0000 -50.0000
v  -50.0000 50.0000 -50.0000
v  50.0000 -50.0000 -50.0000
v  50.0000 -50.0000 50.0000
v  -50.0000 -50.0000 50.0000
v  -50.0000 -50.0000 -50.0000
# 8 vertices

vn 0.0000 1.0000 -0.0000
vn 0.0000 -1.0000 -0.0000
vn 0.0000 -0.0000 1.0000
vn 0.0000 0.0000 -1.0000
vn -1.0000 -0.0000 -0.0000
vn 1.0000 0.0000 -0.0000
# 6 vertex normals

vt 0.0000 0.0000 0.0000
vt 1.0000 0.0000 0.0000
vt 0.0000 1.0000 0.0000
vt 1.0000 1.0000 0.0000
vt 0.0000 1.0000 0.0000
vt 0.0000 0.0000 0.0000
vt 1.0000 1.0000 0.0000
vt 1.0000 0.0000 0.0000
vt 0.0000 0.0000 0.0000
vt 1.0000 0.0000 0.0000
vt 0.0000 1.0000 0.0000
vt 1.0000 1.0000 0.0000
vt 0.0000 1.0000 0.0000
vt 0.0000 0.0000 0.0000
vt 1.0000 1.0000 0.0000
vt 1.0000 0.0000 0.0000
vt 0.0000 0.0000 0.0000
vt 1.0000 0.0000 0.0000
vt 0.0000 1.0000 0.0000
vt 1.0000 1.0000 0.0000
vt 0.0000 1.0000 0.0000
vt 0.0000 0.0000 0.0000
vt 1.0000 1.0000 0.0000
vt 1.0000 0.0000 0.0000
# 24 texture coords

g Cube_Substance_Homemade_Original
s 1
f 1/1/1 2/2/1 3/4/1 4/3/1 
f 5/7/2 6/8/2 7/6/2 8/5/2 
s 2
f 7/9/3 6/10/3 2/12/3 1/11/3 
f 3/15/4 5/16/4 8/14/4 4/13/4 
s 4
f 7/17/5 1/18/5 4/20/5 8/19/5 
f 3/23/6 2/24/6 6/22/6 5/21/6 
# 6 polygons

