{"asset":{"version":"2.0","generator":"Blockbench 3.6.6 glTF exporter"},"scenes":[{"nodes":[14],"name":"blockbench_export"}],"scene":0,"nodes":[{"translation":[5,7.5,6.5],"name":"c037964f-741a-f711-593f-1f5cfbe0d9b2","mesh":0},{"rotation":[0,0,-0.01745240643728351,0.9998476951563913],"translation":[1,0.5,0],"name":"bone3"},{"translation":[7,6,6],"name":"b96e8d48-bdb1-eb87-1752-b239072a4c54","mesh":1},{"translation":[-4,6,6],"name":"8670869f-32e0-fb08-76a6-63277b44d999","mesh":2},{"translation":[-4,8,6],"name":"9b9f5d4b-51a6-c112-5747-6572f715e8f6","mesh":3},{"translation":[-9,10.25,-6],"name":"25a526dc-d76c-3459-888a-598c0f0990c3","mesh":4},{"translation":[-4,-2,0],"name":"bone3","children":[4,5]},{"rotation":[0,0,0.01745240643728351,0.9998476951563913],"translation":[-1,0.5,0],"name":"bone2","children":[3,6]},{"translation":[4,6,6],"name":"3a4a53a4-4435-46ae-ea7f-27906eacc520","mesh":5},{"translation":[4,8,6],"name":"e95c7d48-4494-d644-a19b-d6a988302167","mesh":6},{"translation":[9,10.25,-6],"name":"b4a2facf-3e95-137c-9ffc-df45a04f1574","mesh":7},{"translation":[4,-2,0],"name":"bone5","children":[9,10]},{"rotation":[0,0,-0.01745240643728351,0.9998476951563913],"translation":[1,0.5,0],"name":"bone4","children":[8,11]},{"rotation":[1.793623438309732e-15,-9.135349746511951e-32,-5.093237271208324e-17,1],"translation":[0,3,0],"name":"bone","children":[1,2,7,12]},{"translation":[0,0.5,0],"name":"group","children":[0,13]}],"bufferViews":[{"buffer":0,"byteOffset":0,"byteLength":432,"target":34962,"byteStride":12},{"buffer":0,"byteOffset":432,"byteLength":432,"target":34962,"byteStride":12},{"buffer":0,"byteOffset":864,"byteLength":288,"target":34962,"byteStride":8},{"buffer":0,"byteOffset":1152,"byteLength":12,"target":34963},{"buffer":0,"byteOffset":1164,"byteLength":12,"target":34963},{"buffer":0,"byteOffset":1176,"byteLength":12,"target":34963},{"buffer":0,"byteOffset":1188,"byteLength":12,"target":34963},{"buffer":0,"byteOffset":1200,"byteLength":12,"target":34963},{"buffer":0,"byteOffset":1212,"byteLength":12,"target":34963},{"buffer":0,"byteOffset":1224,"byteLength":432,"target":34962,"byteStride":12},{"buffer":0,"byteOffset":1656,"byteLength":432,"target":34962,"byteStride":12},{"buffer":0,"byteOffset":2088,"byteLength":288,"target":34962,"byteStride":8},{"buffer":0,"byteOffset":2376,"byteLength":12,"target":34963},{"buffer":0,"byteOffset":2388,"byteLength":12,"target":34963},{"buffer":0,"byteOffset":2400,"byteLength":12,"target":34963},{"buffer":0,"byteOffset":2412,"byteLength":12,"target":34963},{"buffer":0,"byteOffset":2424,"byteLength":12,"target":34963},{"buffer":0,"byteOffset":2436,"byteLength":12,"target":34963},{"buffer":0,"byteOffset":2448,"byteLength":432,"target":34962,"byteStride":12},{"buffer":0,"byteOffset":2880,"byteLength":432,"target":34962,"byteStride":12},{"buffer":0,"byteOffset":3312,"byteLength":288,"target":34962,"byteStride":8},{"buffer":0,"byteOffset":3600,"byteLength":12,"target":34963},{"buffer":0,"byteOffset":3612,"byteLength":12,"target":34963},{"buffer":0,"byteOffset":3624,"byteLength":12,"target":34963},{"buffer":0,"byteOffset":3636,"byteLength":12,"target":34963},{"buffer":0,"byteOffset":3648,"byteLength":12,"target":34963},{"buffer":0,"byteOffset":3660,"byteLength":12,"target":34963},{"buffer":0,"byteOffset":3672,"byteLength":432,"target":34962,"byteStride":12},{"buffer":0,"byteOffset":4104,"byteLength":432,"target":34962,"byteStride":12},{"buffer":0,"byteOffset":4536,"byteLength":288,"target":34962,"byteStride":8},{"buffer":0,"byteOffset":4824,"byteLength":12,"target":34963},{"buffer":0,"byteOffset":4836,"byteLength":12,"target":34963},{"buffer":0,"byteOffset":4848,"byteLength":12,"target":34963},{"buffer":0,"byteOffset":4860,"byteLength":12,"target":34963},{"buffer":0,"byteOffset":4872,"byteLength":12,"target":34963},{"buffer":0,"byteOffset":4884,"byteLength":12,"target":34963},{"buffer":0,"byteOffset":4896,"byteLength":432,"target":34962,"byteStride":12},{"buffer":0,"byteOffset":5328,"byteLength":432,"target":34962,"byteStride":12},{"buffer":0,"byteOffset":5760,"byteLength":288,"target":34962,"byteStride":8},{"buffer":0,"byteOffset":6048,"byteLength":12,"target":34963},{"buffer":0,"byteOffset":6060,"byteLength":12,"target":34963},{"buffer":0,"byteOffset":6072,"byteLength":12,"target":34963},{"buffer":0,"byteOffset":6084,"byteLength":12,"target":34963},{"buffer":0,"byteOffset":6096,"byteLength":12,"target":34963},{"buffer":0,"byteOffset":6108,"byteLength":12,"target":34963},{"buffer":0,"byteOffset":6120,"byteLength":432,"target":34962,"byteStride":12},{"buffer":0,"byteOffset":6552,"byteLength":432,"target":34962,"byteStride":12},{"buffer":0,"byteOffset":6984,"byteLength":288,"target":34962,"byteStride":8},{"buffer":0,"byteOffset":7272,"byteLength":12,"target":34963},{"buffer":0,"byteOffset":7284,"byteLength":12,"target":34963},{"buffer":0,"byteOffset":7296,"byteLength":12,"target":34963},{"buffer":0,"byteOffset":7308,"byteLength":12,"target":34963},{"buffer":0,"byteOffset":7320,"byteLength":12,"target":34963},{"buffer":0,"byteOffset":7332,"byteLength":12,"target":34963},{"buffer":0,"byteOffset":7344,"byteLength":432,"target":34962,"byteStride":12},{"buffer":0,"byteOffset":7776,"byteLength":432,"target":34962,"byteStride":12},{"buffer":0,"byteOffset":8208,"byteLength":288,"target":34962,"byteStride":8},{"buffer":0,"byteOffset":8496,"byteLength":12,"target":34963},{"buffer":0,"byteOffset":8508,"byteLength":12,"target":34963},{"buffer":0,"byteOffset":8520,"byteLength":12,"target":34963},{"buffer":0,"byteOffset":8532,"byteLength":12,"target":34963},{"buffer":0,"byteOffset":8544,"byteLength":12,"target":34963},{"buffer":0,"byteOffset":8556,"byteLength":12,"target":34963},{"buffer":0,"byteOffset":8568,"byteLength":432,"target":34962,"byteStride":12},{"buffer":0,"byteOffset":9000,"byteLength":432,"target":34962,"byteStride":12},{"buffer":0,"byteOffset":9432,"byteLength":288,"target":34962,"byteStride":8},{"buffer":0,"byteOffset":9720,"byteLength":12,"target":34963},{"buffer":0,"byteOffset":9732,"byteLength":12,"target":34963},{"buffer":0,"byteOffset":9744,"byteLength":12,"target":34963},{"buffer":0,"byteOffset":9756,"byteLength":12,"target":34963},{"buffer":0,"byteOffset":9768,"byteLength":12,"target":34963},{"buffer":0,"byteOffset":9780,"byteLength":12,"target":34963},{"buffer":0,"byteOffset":9792,"byteLength":16},{"buffer":0,"byteOffset":9808,"byteLength":64},{"buffer":0,"byteOffset":9872,"byteLength":12},{"buffer":0,"byteOffset":9884,"byteLength":36},{"buffer":0,"byteOffset":9920,"byteLength":12},{"buffer":0,"byteOffset":9932,"byteLength":48},{"buffer":0,"byteOffset":9980,"byteLength":20},{"buffer":0,"byteOffset":10000,"byteLength":60},{"buffer":0,"byteOffset":10060,"byteLength":16},{"buffer":0,"byteOffset":10076,"byteLength":64},{"buffer":0,"byteOffset":10140,"byteLength":4},{"buffer":0,"byteOffset":10144,"byteLength":12},{"buffer":0,"byteOffset":10156,"byteLength":12},{"buffer":0,"byteOffset":10168,"byteLength":48},{"buffer":0,"byteOffset":10216,"byteLength":20},{"buffer":0,"byteOffset":10236,"byteLength":60},{"buffer":0,"byteOffset":10296,"byteLength":16},{"buffer":0,"byteOffset":10312,"byteLength":64},{"buffer":0,"byteOffset":10376,"byteLength":8},{"buffer":0,"byteOffset":10384,"byteLength":24},{"buffer":0,"byteOffset":10408,"byteLength":16},{"buffer":0,"byteOffset":10424,"byteLength":64}],"buffers":[{"byteLength":10488,"uri":"data:application/octet-stream;base64,"}],"accessors":[{"bufferView":0,"componentType":5126,"count":36,"max":[-1,-6,-4],"min":[-9,-8,-9],"type":"VEC3"},{"bufferView":1,"componentType":5126,"count":36,"max":[1,1,1],"min":[-1,-1,-1],"type":"VEC3"},{"bufferView":2,"componentType":5126,"count":36,"max":[0.81201171875,0.99951171875],"min":[0.00048828125,0.78173828125],"type":"VEC2"},{"bufferView":3,"componentType":5123,"count":6,"max":[5],"min":[0],"type":"SCALAR"},{"bufferView":4,"componentType":5123,"count":6,"max":[11],"min":[6],"type":"SCALAR"},{"bufferView":5,"componentType":5123,"count":6,"max":[17],"min":[12],"type":"SCALAR"},{"bufferView":6,"componentType":5123,"count":6,"max":[23],"min":[18],"type":"SCALAR"},{"bufferView":7,"componentType":5123,"count":6,"max":[29],"min":[24],"type":"SCALAR"},{"bufferView":8,"componentType":5123,"count":6,"max":[35],"min":[30],"type":"SCALAR"},{"bufferView":9,"componentType":5126,"count":36,"max":[-6,-6,-5],"min":[-8,-8,-7],"type":"VEC3"},{"bufferView":10,"componentType":5126,"count":36,"max":[1,1,1],"min":[-1,-1,-1],"type":"VEC3"},{"bufferView":11,"componentType":5126,"count":36,"max":[0.24951171875,0.31201171875],"min":[0.00048828125,0.18798828125],"type":"VEC2"},{"bufferView":12,"componentType":5123,"count":6,"max":[5],"min":[0],"type":"SCALAR"},{"bufferView":13,"componentType":5123,"count":6,"max":[11],"min":[6],"type":"SCALAR"},{"bufferView":14,"componentType":5123,"count":6,"max":[17],"min":[12],"type":"SCALAR"},{"bufferView":15,"componentType":5123,"count":6,"max":[23],"min":[18],"type":"SCALAR"},{"bufferView":16,"componentType":5123,"count":6,"max":[29],"min":[24],"type":"SCALAR"},{"bufferView":17,"componentType":5123,"count":6,"max":[35],"min":[30],"type":"SCALAR"},{"bufferView":18,"componentType":5126,"count":36,"max":[4,-6,-4],"min":[0,-8,-8],"type":"VEC3"},{"bufferView":19,"componentType":5126,"count":36,"max":[1,1,1],"min":[-1,-1,-1],"type":"VEC3"},{"bufferView":20,"componentType":5126,"count":36,"max":[0.49951171875,0.56201171875],"min":[0.00048828125,0.37548828125],"type":"VEC2"},{"bufferView":21,"componentType":5123,"count":6,"max":[5],"min":[0],"type":"SCALAR"},{"bufferView":22,"componentType":5123,"count":6,"max":[11],"min":[6],"type":"SCALAR"},{"bufferView":23,"componentType":5123,"count":6,"max":[17],"min":[12],"type":"SCALAR"},{"bufferView":24,"componentType":5123,"count":6,"max":[23],"min":[18],"type":"SCALAR"},{"bufferView":25,"componentType":5123,"count":6,"max":[29],"min":[24],"type":"SCALAR"},{"bufferView":26,"componentType":5123,"count":6,"max":[35],"min":[30],"type":"SCALAR"},{"bufferView":27,"componentType":5126,"count":36,"max":[4,-6,-4],"min":[0,-8,-8],"type":"VEC3"},{"bufferView":28,"componentType":5126,"count":36,"max":[1,1,1],"min":[-1,-1,-1],"type":"VEC3"},{"bufferView":29,"componentType":5126,"count":36,"max":[0.99951171875,0.56201171875],"min":[0.50048828125,0.37548828125],"type":"VEC2"},{"bufferView":30,"componentType":5123,"count":6,"max":[5],"min":[0],"type":"SCALAR"},{"bufferView":31,"componentType":5123,"count":6,"max":[11],"min":[6],"type":"SCALAR"},{"bufferView":32,"componentType":5123,"count":6,"max":[17],"min":[12],"type":"SCALAR"},{"bufferView":33,"componentType":5123,"count":6,"max":[23],"min":[18],"type":"SCALAR"},{"bufferView":34,"componentType":5123,"count":6,"max":[29],"min":[24],"type":"SCALAR"},{"bufferView":35,"componentType":5123,"count":6,"max":[35],"min":[30],"type":"SCALAR"},{"bufferView":36,"componentType":5126,"count":36,"max":[8,-7.999000072479248,7],"min":[6,-8,5],"type":"VEC3"},{"bufferView":37,"componentType":5126,"count":36,"max":[1,1,1],"min":[-1,-1,-1],"type":"VEC3"},{"bufferView":38,"componentType":5126,"count":36,"max":[0.46826171875,0.24951171875],"min":[0.21923828125,0.18701171875],"type":"VEC2"},{"bufferView":39,"componentType":5123,"count":6,"max":[5],"min":[0],"type":"SCALAR"},{"bufferView":40,"componentType":5123,"count":6,"max":[11],"min":[6],"type":"SCALAR"},{"bufferView":41,"componentType":5123,"count":6,"max":[17],"min":[12],"type":"SCALAR"},{"bufferView":42,"componentType":5123,"count":6,"max":[23],"min":[18],"type":"SCALAR"},{"bufferView":43,"componentType":5123,"count":6,"max":[29],"min":[24],"type":"SCALAR"},{"bufferView":44,"componentType":5123,"count":6,"max":[35],"min":[30],"type":"SCALAR"},{"bufferView":45,"componentType":5126,"count":36,"max":[0,-6,-4],"min":[-4,-8,-8],"type":"VEC3"},{"bufferView":46,"componentType":5126,"count":36,"max":[1,1,1],"min":[-1,-1,-1],"type":"VEC3"},{"bufferView":47,"componentType":5126,"count":36,"max":[0.49951171875,0.56201171875],"min":[0.00048828125,0.37548828125],"type":"VEC2"},{"bufferView":48,"componentType":5123,"count":6,"max":[5],"min":[0],"type":"SCALAR"},{"bufferView":49,"componentType":5123,"count":6,"max":[11],"min":[6],"type":"SCALAR"},{"bufferView":50,"componentType":5123,"count":6,"max":[17],"min":[12],"type":"SCALAR"},{"bufferView":51,"componentType":5123,"count":6,"max":[23],"min":[18],"type":"SCALAR"},{"bufferView":52,"componentType":5123,"count":6,"max":[29],"min":[24],"type":"SCALAR"},{"bufferView":53,"componentType":5123,"count":6,"max":[35],"min":[30],"type":"SCALAR"},{"bufferView":54,"componentType":5126,"count":36,"max":[0,-6,-4],"min":[-4,-8,-8],"type":"VEC3"},{"bufferView":55,"componentType":5126,"count":36,"max":[1,1,1],"min":[-1,-1,-1],"type":"VEC3"},{"bufferView":56,"componentType":5126,"count":36,"max":[0.99951171875,0.56201171875],"min":[0.50048828125,0.37548828125],"type":"VEC2"},{"bufferView":57,"componentType":5123,"count":6,"max":[5],"min":[0],"type":"SCALAR"},{"bufferView":58,"componentType":5123,"count":6,"max":[11],"min":[6],"type":"SCALAR"},{"bufferView":59,"componentType":5123,"count":6,"max":[17],"min":[12],"type":"SCALAR"},{"bufferView":60,"componentType":5123,"count":6,"max":[23],"min":[18],"type":"SCALAR"},{"bufferView":61,"componentType":5123,"count":6,"max":[29],"min":[24],"type":"SCALAR"},{"bufferView":62,"componentType":5123,"count":6,"max":[35],"min":[30],"type":"SCALAR"},{"bufferView":63,"componentType":5126,"count":36,"max":[-6,-7.999000072479248,7],"min":[-8,-8,5],"type":"VEC3"},{"bufferView":64,"componentType":5126,"count":36,"max":[1,1,1],"min":[-1,-1,-1],"type":"VEC3"},{"bufferView":65,"componentType":5126,"count":36,"max":[0.46826171875,0.24951171875],"min":[0.21923828125,0.18701171875],"type":"VEC2"},{"bufferView":66,"componentType":5123,"count":6,"max":[5],"min":[0],"type":"SCALAR"},{"bufferView":67,"componentType":5123,"count":6,"max":[11],"min":[6],"type":"SCALAR"},{"bufferView":68,"componentType":5123,"count":6,"max":[17],"min":[12],"type":"SCALAR"},{"bufferView":69,"componentType":5123,"count":6,"max":[23],"min":[18],"type":"SCALAR"},{"bufferView":70,"componentType":5123,"count":6,"max":[29],"min":[24],"type":"SCALAR"},{"bufferView":71,"componentType":5123,"count":6,"max":[35],"min":[30],"type":"SCALAR"},{"bufferView":72,"componentType":5126,"count":4,"max":[3.75],"min":[0.75],"type":"SCALAR"},{"bufferView":73,"componentType":5126,"count":4,"max":[1.7936233942717926e-15,0.8660253882408142,5.093237235980935e-17,1],"min":[-1.7936233942717926e-15,-9.135349645438004e-32,-1.5787896867058555e-15,-1],"type":"VEC4"},{"bufferView":74,"componentType":5126,"count":3,"max":[0.3499999940395355],"min":[0],"type":"SCALAR"},{"bufferView":75,"componentType":5126,"count":3,"max":[0,3.200000047683716,0],"min":[0,2,0],"type":"VEC3"},{"bufferView":76,"componentType":5126,"count":3,"max":[3.75],"min":[0],"type":"SCALAR"},{"bufferView":77,"componentType":5126,"count":3,"max":[0,0,0.017452405765652657,0.9998477101325989],"min":[0,0,-0.7071067690849304,0.7071067690849304],"type":"VEC4"},{"bufferView":78,"componentType":5126,"count":5,"max":[4.550000190734863],"min":[0],"type":"SCALAR"},{"bufferView":79,"componentType":5126,"count":5,"max":[-0.5,0.5,0],"min":[-1,-1.5,0],"type":"VEC3"},{"bufferView":80,"componentType":5126,"count":4,"max":[3.75],"min":[0],"type":"SCALAR"},{"bufferView":81,"componentType":5126,"count":4,"max":[0,0,1,1],"min":[0,0,0,6.123234262925839e-17],"type":"VEC4"},{"bufferView":82,"componentType":5126,"count":1,"max":[0.75],"min":[0.75],"type":"SCALAR"},{"bufferView":83,"componentType":5126,"count":1,"max":[-4,-2,0],"min":[-4,-2,0],"type":"VEC3"},{"bufferView":84,"componentType":5126,"count":3,"max":[3.75],"min":[0],"type":"SCALAR"},{"bufferView":85,"componentType":5126,"count":3,"max":[0,0,0.7071067690849304,0.9998477101325989],"min":[0,0,-0.017452405765652657,0.7071067690849304],"type":"VEC4"},{"bufferView":86,"componentType":5126,"count":5,"max":[4.550000190734863],"min":[0],"type":"SCALAR"},{"bufferView":87,"componentType":5126,"count":5,"max":[1,0.5,0],"min":[0.5,-1.5,0],"type":"VEC3"},{"bufferView":88,"componentType":5126,"count":4,"max":[3.75],"min":[0],"type":"SCALAR"},{"bufferView":89,"componentType":5126,"count":4,"max":[0,0,0,1],"min":[0,0,-1,6.123234262925839e-17],"type":"VEC4"},{"bufferView":90,"componentType":5126,"count":2,"max":[3.75],"min":[0.75],"type":"SCALAR"},{"bufferView":91,"componentType":5126,"count":2,"max":[4,-2,0],"min":[4,-2,0],"type":"VEC3"},{"bufferView":92,"componentType":5126,"count":4,"max":[0.75],"min":[0],"type":"SCALAR"},{"bufferView":93,"componentType":5126,"count":4,"max":[1.7936233942717926e-15,-9.135349645438004e-32,1.5787896867058555e-15,1],"min":[-1.7936233942717926e-15,-0.8660253882408142,-5.093237235980935e-17,-1],"type":"VEC4"}],"materials":[{"pbrMetallicRoughness":{"metallicFactor":0,"roughnessFactor":1,"baseColorTexture":{"index":0}},"alphaMode":"MASK","alphaCutoff":0.05,"doubleSided":true,"name":"teleporter.png"}],"textures":[{"sampler":0,"source":0,"name":"teleporter.png"}],"samplers":[{"magFilter":9728,"minFilter":9728,"wrapS":33071,"wrapT":33071}],"images":[{"mimeType":"image/png","uri":"data:image/png;base64,"}],"meshes":[{"primitives":[{"mode":4,"attributes":{"POSITION":0,"NORMAL":1,"TEXCOORD_0":2},"indices":3,"material":0},{"mode":4,"attributes":{"POSITION":0,"NORMAL":1,"TEXCOORD_0":2},"indices":4,"material":0},{"mode":4,"attributes":{"POSITION":0,"NORMAL":1,"TEXCOORD_0":2},"indices":5,"material":0},{"mode":4,"attributes":{"POSITION":0,"NORMAL":1,"TEXCOORD_0":2},"indices":6,"material":0},{"mode":4,"attributes":{"POSITION":0,"NORMAL":1,"TEXCOORD_0":2},"indices":7,"material":0},{"mode":4,"attributes":{"POSITION":0,"NORMAL":1,"TEXCOORD_0":2},"indices":8,"material":0}]},{"primitives":[{"mode":4,"attributes":{"POSITION":9,"NORMAL":10,"TEXCOORD_0":11},"indices":12,"material":0},{"mode":4,"attributes":{"POSITION":9,"NORMAL":10,"TEXCOORD_0":11},"indices":13,"material":0},{"mode":4,"attributes":{"POSITION":9,"NORMAL":10,"TEXCOORD_0":11},"indices":14,"material":0},{"mode":4,"attributes":{"POSITION":9,"NORMAL":10,"TEXCOORD_0":11},"indices":15,"material":0},{"mode":4,"attributes":{"POSITION":9,"NORMAL":10,"TEXCOORD_0":11},"indices":16,"material":0},{"mode":4,"attributes":{"POSITION":9,"NORMAL":10,"TEXCOORD_0":11},"indices":17,"material":0}]},{"primitives":[{"mode":4,"attributes":{"POSITION":18,"NORMAL":19,"TEXCOORD_0":20},"indices":21,"material":0},{"mode":4,"attributes":{"POSITION":18,"NORMAL":19,"TEXCOORD_0":20},"indices":22,"material":0},{"mode":4,"attributes":{"POSITION":18,"NORMAL":19,"TEXCOORD_0":20},"indices":23,"material":0},{"mode":4,"attributes":{"POSITION":18,"NORMAL":19,"TEXCOORD_0":20},"indices":24,"material":0},{"mode":4,"attributes":{"POSITION":18,"NORMAL":19,"TEXCOORD_0":20},"indices":25,"material":0},{"mode":4,"attributes":{"POSITION":18,"NORMAL":19,"TEXCOORD_0":20},"indices":26,"material":0}]},{"primitives":[{"mode":4,"attributes":{"POSITION":27,"NORMAL":28,"TEXCOORD_0":29},"indices":30,"material":0},{"mode":4,"attributes":{"POSITION":27,"NORMAL":28,"TEXCOORD_0":29},"indices":31,"material":0},{"mode":4,"attributes":{"POSITION":27,"NORMAL":28,"TEXCOORD_0":29},"indices":32,"material":0},{"mode":4,"attributes":{"POSITION":27,"NORMAL":28,"TEXCOORD_0":29},"indices":33,"material":0},{"mode":4,"attributes":{"POSITION":27,"NORMAL":28,"TEXCOORD_0":29},"indices":34,"material":0},{"mode":4,"attributes":{"POSITION":27,"NORMAL":28,"TEXCOORD_0":29},"indices":35,"material":0}]},{"primitives":[{"mode":4,"attributes":{"POSITION":36,"NORMAL":37,"TEXCOORD_0":38},"indices":39,"material":0},{"mode":4,"attributes":{"POSITION":36,"NORMAL":37,"TEXCOORD_0":38},"indices":40,"material":0},{"mode":4,"attributes":{"POSITION":36,"NORMAL":37,"TEXCOORD_0":38},"indices":41,"material":0},{"mode":4,"attributes":{"POSITION":36,"NORMAL":37,"TEXCOORD_0":38},"indices":42,"material":0},{"mode":4,"attributes":{"POSITION":36,"NORMAL":37,"TEXCOORD_0":38},"indices":43,"material":0},{"mode":4,"attributes":{"POSITION":36,"NORMAL":37,"TEXCOORD_0":38},"indices":44,"material":0}]},{"primitives":[{"mode":4,"attributes":{"POSITION":45,"NORMAL":46,"TEXCOORD_0":47},"indices":48,"material":0},{"mode":4,"attributes":{"POSITION":45,"NORMAL":46,"TEXCOORD_0":47},"indices":49,"material":0},{"mode":4,"attributes":{"POSITION":45,"NORMAL":46,"TEXCOORD_0":47},"indices":50,"material":0},{"mode":4,"attributes":{"POSITION":45,"NORMAL":46,"TEXCOORD_0":47},"indices":51,"material":0},{"mode":4,"attributes":{"POSITION":45,"NORMAL":46,"TEXCOORD_0":47},"indices":52,"material":0},{"mode":4,"attributes":{"POSITION":45,"NORMAL":46,"TEXCOORD_0":47},"indices":53,"material":0}]},{"primitives":[{"mode":4,"attributes":{"POSITION":54,"NORMAL":55,"TEXCOORD_0":56},"indices":57,"material":0},{"mode":4,"attributes":{"POSITION":54,"NORMAL":55,"TEXCOORD_0":56},"indices":58,"material":0},{"mode":4,"attributes":{"POSITION":54,"NORMAL":55,"TEXCOORD_0":56},"indices":59,"material":0},{"mode":4,"attributes":{"POSITION":54,"NORMAL":55,"TEXCOORD_0":56},"indices":60,"material":0},{"mode":4,"attributes":{"POSITION":54,"NORMAL":55,"TEXCOORD_0":56},"indices":61,"material":0},{"mode":4,"attributes":{"POSITION":54,"NORMAL":55,"TEXCOORD_0":56},"indices":62,"material":0}]},{"primitives":[{"mode":4,"attributes":{"POSITION":63,"NORMAL":64,"TEXCOORD_0":65},"indices":66,"material":0},{"mode":4,"attributes":{"POSITION":63,"NORMAL":64,"TEXCOORD_0":65},"indices":67,"material":0},{"mode":4,"attributes":{"POSITION":63,"NORMAL":64,"TEXCOORD_0":65},"indices":68,"material":0},{"mode":4,"attributes":{"POSITION":63,"NORMAL":64,"TEXCOORD_0":65},"indices":69,"material":0},{"mode":4,"attributes":{"POSITION":63,"NORMAL":64,"TEXCOORD_0":65},"indices":70,"material":0},{"mode":4,"attributes":{"POSITION":63,"NORMAL":64,"TEXCOORD_0":65},"indices":71,"material":0}]}],"animations":[{"name":"construction","samplers":[{"input":72,"output":73,"interpolation":"LINEAR"},{"input":74,"output":75,"interpolation":"LINEAR"},{"input":76,"output":77,"interpolation":"LINEAR"},{"input":78,"output":79,"interpolation":"LINEAR"},{"input":80,"output":81,"interpolation":"LINEAR"},{"input":82,"output":83,"interpolation":"LINEAR"},{"input":84,"output":85,"interpolation":"LINEAR"},{"input":86,"output":87,"interpolation":"LINEAR"},{"input":88,"output":89,"interpolation":"LINEAR"},{"input":90,"output":91,"interpolation":"LINEAR"}],"channels":[{"sampler":0,"target":{"node":13,"path":"rotation"}},{"sampler":1,"target":{"node":13,"path":"translation"}},{"sampler":2,"target":{"node":7,"path":"rotation"}},{"sampler":3,"target":{"node":7,"path":"translation"}},{"sampler":4,"target":{"node":6,"path":"rotation"}},{"sampler":5,"target":{"node":6,"path":"translation"}},{"sampler":6,"target":{"node":12,"path":"rotation"}},{"sampler":7,"target":{"node":12,"path":"translation"}},{"sampler":8,"target":{"node":11,"path":"rotation"}},{"sampler":9,"target":{"node":11,"path":"translation"}}]},{"name":"loop spin","samplers":[{"input":92,"output":93,"interpolation":"LINEAR"}],"channels":[{"sampler":0,"target":{"node":13,"path":"rotation"}}]}]}