# File produced by Open Asset Import Library (http://www.assimp.sf.net)
# (assimp v5.0.639693989)

mtllib bn9rpdfsrzu1.mtl

# 61 vertex positions
v  0 4 1
v  0 0 1
v  0 4 -1
v  0 0 -1
v  -3 4 -1
v  -3 0 -1
v  -3 4 1
v  -3 0 1
v  0 1 -1
v  0 1 -2
v  0 0 -2
v  -3 1 -2
v  -3 0 -2
v  -3 1 -1
v  3 4 1
v  3 0 1
v  3 4 -1
v  3 0 -1
v  3 1 -1
v  3 1 -2
v  3 0 -2
v  2 11 -6
v  2 9 -6
v  2 11 -8
v  2 9 -8
v  -2 11 -8
v  -2 9 -8
v  -2 11 -6
v  -2 9 -6
v  2 13 -2
v  2 7 -2
v  2 13 -6
v  2 7 -6
v  -2 13 -6
v  -2 7 -6
v  -2 13 -2
v  -2 7 -2
v  -3 9.5 3
v  -3 5.5 3
v  -3 9.5 -3
v  -3 5.5 -3
v  -4 9.5 -3
v  -4 5.5 -3
v  -4 9.5 3
v  -4 5.5 3
v  4 9.5 3
v  4 5.5 3
v  4 9.5 -3
v  4 5.5 -3
v  3 9.5 -3
v  3 5.5 -3
v  3 9.5 3
v  3 5.5 3
v  3 10 4
v  3 4 4
v  3 10 -4
v  3 4 -4
v  -3 10 -4
v  -3 4 -4
v  -3 10 4
v  -3 4 4

# 141 UV coordinates
vt 0.40649414 0.062988281 0
vt 0.40649414 0.18701172 0
vt 0.43725586 0.062988281 0
vt 0.43725586 0.18701172 0
vt 0.48461914 0.062988281 0
vt 0.48461914 0.18701172 0
vt 0.51538086 0.062988281 0
vt 0.51538086 0.18701172 0
vt 0.48413086 0.062011719 0
vt 0.48413086 0.00048828125 0
vt 0.43774414 0.062011719 0
vt 0.43774414 0.00048828125 0
vt 0.53100586 0.00048828125 0
vt 0.53100586 0.062011719 0
vt 0.48461914 0.00048828125 0
vt 0.48461914 0.062011719 0
vt 0.51586914 0.062988281 0
vt 0.51586914 0.18701172 0
vt 0.56225586 0.062988281 0
vt 0.56225586 0.18701172 0
vt 0.43774414 0.062988281 0
vt 0.43774414 0.18701172 0
vt 0.48413086 0.062988281 0
vt 0.48413086 0.18701172 0
vt 0.40649414 0.15673828 0
vt 0.42163086 0.15673828 0
vt 0.42163086 0.18701172 0
vt 0.46899414 0.15673828 0
vt 0.46899414 0.18701172 0
vt 0.48413086 0.15673828 0
vt 0.46850586 0.15576172 0
vt 0.46850586 0.12548828 0
vt 0.42211914 0.15576172 0
vt 0.42211914 0.12548828 0
vt 0.51538086 0.12548828 0
vt 0.51538086 0.15576172 0
vt 0.46899414 0.12548828 0
vt 0.46899414 0.15576172 0
vt 0.48461914 0.15673828 0
vt 0.53100586 0.15673828 0
vt 0.53100586 0.18701172 0
vt 0.42211914 0.15673828 0
vt 0.42211914 0.18701172 0
vt 0.46850586 0.15673828 0
vt 0.46850586 0.18701172 0
vt 0.21899414 0.062988281 0
vt 0.21899414 0.12451172 0
vt 0.24975586 0.062988281 0
vt 0.24975586 0.12451172 0
vt 0.31274414 0.062988281 0
vt 0.31274414 0.12451172 0
vt 0.34350586 0.062988281 0
vt 0.34350586 0.12451172 0
vt 0.31225586 0.062011719 0
vt 0.31225586 0.00048828125 0
vt 0.25024414 0.062011719 0
vt 0.25024414 0.00048828125 0
vt 0.37475586 0.00048828125 0
vt 0.37475586 0.062011719 0
vt 0.31274414 0.00048828125 0
vt 0.31274414 0.062011719 0
vt 0.34399414 0.062988281 0
vt 0.34399414 0.12451172 0
vt 0.40600586 0.062988281 0
vt 0.40600586 0.12451172 0
vt 0.25024414 0.062988281 0
vt 0.25024414 0.12451172 0
vt 0.31225586 0.062988281 0
vt 0.31225586 0.12451172 0
vt 0.00024414062 0.12548828 0
vt 0.00024414062 0.31201172 0
vt 0.062255859 0.12548828 0
vt 0.062255859 0.31201172 0
vt 0.12524414 0.12548828 0
vt 0.12524414 0.31201172 0
vt 0.18725586 0.12548828 0
vt 0.18725586 0.31201172 0
vt 0.12475586 0.12451172 0
vt 0.12475586 0.00048828125 0
vt 0.062744141 0.12451172 0
vt 0.062744141 0.00048828125 0
vt 0.18725586 0.00048828125 0
vt 0.18725586 0.12451172 0
vt 0.12524414 0.00048828125 0
vt 0.12524414 0.12451172 0
vt 0.18774414 0.12548828 0
vt 0.18774414 0.31201172 0
vt 0.24975586 0.12548828 0
vt 0.24975586 0.31201172 0
vt 0.062744141 0.12548828 0
vt 0.062744141 0.31201172 0
vt 0.12475586 0.12548828 0
vt 0.12475586 0.31201172 0
vt 0.37524414 0.59423828 0
vt 0.37524414 0.71826172 0
vt 0.46850586 0.59423828 0
vt 0.46850586 0.71826172 0
vt 0.48461914 0.59423828 0
vt 0.48461914 0.71826172 0
vt 0.57788086 0.59423828 0
vt 0.57788086 0.71826172 0
vt 0.48413086 0.59326172 0
vt 0.48413086 0.40673828 0
vt 0.46899414 0.59326172 0
vt 0.46899414 0.40673828 0
vt 0.49975586 0.40673828 0
vt 0.49975586 0.59326172 0
vt 0.48461914 0.40673828 0
vt 0.48461914 0.59326172 0
vt 0.57836914 0.59423828 0
vt 0.57836914 0.71826172 0
vt 0.59350586 0.59423828 0
vt 0.59350586 0.71826172 0
vt 0.46899414 0.59423828 0
vt 0.46899414 0.71826172 0
vt 0.48413086 0.59423828 0
vt 0.48413086 0.71826172 0
vt 0.00024414062 0.81298828 0
vt 0.00024414062 0.99951172 0
vt 0.12475586 0.81298828 0
vt 0.12475586 0.99951172 0
vt 0.21899414 0.81298828 0
vt 0.21899414 0.99951172 0
vt 0.34350586 0.81298828 0
vt 0.34350586 0.99951172 0
vt 0.21850586 0.81201172 0
vt 0.21850586 0.56298828 0
vt 0.12524414 0.81201172 0
vt 0.12524414 0.56298828 0
vt 0.31225586 0.56298828 0
vt 0.31225586 0.81201172 0
vt 0.21899414 0.56298828 0
vt 0.21899414 0.81201172 0
vt 0.34399414 0.81298828 0
vt 0.34399414 0.99951172 0
vt 0.43725586 0.81298828 0
vt 0.43725586 0.99951172 0
vt 0.12524414 0.81298828 0
vt 0.12524414 0.99951172 0
vt 0.21850586 0.81298828 0
vt 0.21850586 0.99951172 0

# 6 vertex normals
vn 1 0 0
vn -1 0 0
vn 0 1 0
vn 0 -1 0
vn 0 0 1
vn 0 0 -1

# Mesh 'meshes_0-0' with 2 faces
g meshes_0-0
usemtl duck.png
f  1/1/1 2/2/1 3/3/1
f  2/2/1 4/4/1 3/3/1

# Mesh 'meshes_0-1' with 2 faces
g meshes_0-1
usemtl duck.png
f  5/5/2 6/6/2 7/7/2
f  6/6/2 8/8/2 7/7/2

# Mesh 'meshes_0-2' with 2 faces
g meshes_0-2
usemtl duck.png
f  5/9/3 7/10/3 3/11/3
f  7/10/3 1/12/3 3/11/3

# Mesh 'meshes_0-3' with 2 faces
g meshes_0-3
usemtl duck.png
f  8/13/4 6/14/4 2/15/4
f  6/14/4 4/16/4 2/15/4

# Mesh 'meshes_0-4' with 2 faces
g meshes_0-4
usemtl duck.png
f  7/17/5 8/18/5 1/19/5
f  8/18/5 2/20/5 1/19/5

# Mesh 'meshes_0-5' with 2 faces
g meshes_0-5
usemtl duck.png
f  3/21/6 4/22/6 5/23/6
f  4/22/6 6/24/6 5/23/6

# Mesh 'meshes_1-0' with 2 faces
g meshes_1-0
usemtl duck.png
f  9/25/1 4/2/1 10/26/1
f  4/2/1 11/27/1 10/26/1

# Mesh 'meshes_1-1' with 2 faces
g meshes_1-1
usemtl duck.png
f  12/28/2 13/29/2 14/30/2
f  13/29/2 6/24/2 14/30/2

# Mesh 'meshes_1-2' with 2 faces
g meshes_1-2
usemtl duck.png
f  12/31/3 14/32/3 10/33/3
f  14/32/3 9/34/3 10/33/3

# Mesh 'meshes_1-3' with 2 faces
g meshes_1-3
usemtl duck.png
f  6/35/4 13/36/4 4/37/4
f  13/36/4 11/38/4 4/37/4

# Mesh 'meshes_1-4' with 2 faces
g meshes_1-4
usemtl duck.png
f  14/39/5 6/6/5 9/40/5
f  6/6/5 4/41/5 9/40/5

# Mesh 'meshes_1-5' with 2 faces
g meshes_1-5
usemtl duck.png
f  10/42/6 11/43/6 12/44/6
f  11/43/6 13/45/6 12/44/6

# Mesh 'meshes_2-0' with 2 faces
g meshes_2-0
usemtl duck.png
f  15/1/1 16/2/1 17/3/1
f  16/2/1 18/4/1 17/3/1

# Mesh 'meshes_2-1' with 2 faces
g meshes_2-1
usemtl duck.png
f  3/5/2 4/6/2 1/7/2
f  4/6/2 2/8/2 1/7/2

# Mesh 'meshes_2-2' with 2 faces
g meshes_2-2
usemtl duck.png
f  3/9/3 1/10/3 17/11/3
f  1/10/3 15/12/3 17/11/3

# Mesh 'meshes_2-3' with 2 faces
g meshes_2-3
usemtl duck.png
f  2/13/4 4/14/4 16/15/4
f  4/14/4 18/16/4 16/15/4

# Mesh 'meshes_2-4' with 2 faces
g meshes_2-4
usemtl duck.png
f  1/17/5 2/18/5 15/19/5
f  2/18/5 16/20/5 15/19/5

# Mesh 'meshes_2-5' with 2 faces
g meshes_2-5
usemtl duck.png
f  17/21/6 18/22/6 3/23/6
f  18/22/6 4/24/6 3/23/6

# Mesh 'meshes_3-0' with 2 faces
g meshes_3-0
usemtl duck.png
f  19/25/1 18/2/1 20/26/1
f  18/2/1 21/27/1 20/26/1

# Mesh 'meshes_3-1' with 2 faces
g meshes_3-1
usemtl duck.png
f  10/28/2 11/29/2 9/30/2
f  11/29/2 4/24/2 9/30/2

# Mesh 'meshes_3-2' with 2 faces
g meshes_3-2
usemtl duck.png
f  10/31/3 9/32/3 20/33/3
f  9/32/3 19/34/3 20/33/3

# Mesh 'meshes_3-3' with 2 faces
g meshes_3-3
usemtl duck.png
f  4/35/4 11/36/4 18/37/4
f  11/36/4 21/38/4 18/37/4

# Mesh 'meshes_3-4' with 2 faces
g meshes_3-4
usemtl duck.png
f  9/39/5 4/6/5 19/40/5
f  4/6/5 18/41/5 19/40/5

# Mesh 'meshes_3-5' with 2 faces
g meshes_3-5
usemtl duck.png
f  20/42/6 21/43/6 10/44/6
f  21/43/6 11/45/6 10/44/6

# Mesh 'meshes_4-0' with 2 faces
g meshes_4-0
usemtl duck.png
f  22/46/1 23/47/1 24/48/1
f  23/47/1 25/49/1 24/48/1

# Mesh 'meshes_4-1' with 2 faces
g meshes_4-1
usemtl duck.png
f  26/50/2 27/51/2 28/52/2
f  27/51/2 29/53/2 28/52/2

# Mesh 'meshes_4-2' with 2 faces
g meshes_4-2
usemtl duck.png
f  26/54/3 28/55/3 24/56/3
f  28/55/3 22/57/3 24/56/3

# Mesh 'meshes_4-3' with 2 faces
g meshes_4-3
usemtl duck.png
f  29/58/4 27/59/4 23/60/4
f  27/59/4 25/61/4 23/60/4

# Mesh 'meshes_4-4' with 2 faces
g meshes_4-4
usemtl duck.png
f  28/62/5 29/63/5 22/64/5
f  29/63/5 23/65/5 22/64/5

# Mesh 'meshes_4-5' with 2 faces
g meshes_4-5
usemtl duck.png
f  24/66/6 25/67/6 26/68/6
f  25/67/6 27/69/6 26/68/6

# Mesh 'meshes_5-0' with 2 faces
g meshes_5-0
usemtl duck.png
f  30/70/1 31/71/1 32/72/1
f  31/71/1 33/73/1 32/72/1

# Mesh 'meshes_5-1' with 2 faces
g meshes_5-1
usemtl duck.png
f  34/74/2 35/75/2 36/76/2
f  35/75/2 37/77/2 36/76/2

# Mesh 'meshes_5-2' with 2 faces
g meshes_5-2
usemtl duck.png
f  34/78/3 36/79/3 32/80/3
f  36/79/3 30/81/3 32/80/3

# Mesh 'meshes_5-3' with 2 faces
g meshes_5-3
usemtl duck.png
f  37/82/4 35/83/4 31/84/4
f  35/83/4 33/85/4 31/84/4

# Mesh 'meshes_5-4' with 2 faces
g meshes_5-4
usemtl duck.png
f  36/86/5 37/87/5 30/88/5
f  37/87/5 31/89/5 30/88/5

# Mesh 'meshes_5-5' with 2 faces
g meshes_5-5
usemtl duck.png
f  32/90/6 33/91/6 34/92/6
f  33/91/6 35/93/6 34/92/6

# Mesh 'meshes_6-0' with 2 faces
g meshes_6-0
usemtl duck.png
f  38/94/1 39/95/1 40/96/1
f  39/95/1 41/97/1 40/96/1

# Mesh 'meshes_6-1' with 2 faces
g meshes_6-1
usemtl duck.png
f  42/98/2 43/99/2 44/100/2
f  43/99/2 45/101/2 44/100/2

# Mesh 'meshes_6-2' with 2 faces
g meshes_6-2
usemtl duck.png
f  42/102/3 44/103/3 40/104/3
f  44/103/3 38/105/3 40/104/3

# Mesh 'meshes_6-3' with 2 faces
g meshes_6-3
usemtl duck.png
f  45/106/4 43/107/4 39/108/4
f  43/107/4 41/109/4 39/108/4

# Mesh 'meshes_6-4' with 2 faces
g meshes_6-4
usemtl duck.png
f  44/110/5 45/111/5 38/112/5
f  45/111/5 39/113/5 38/112/5

# Mesh 'meshes_6-5' with 2 faces
g meshes_6-5
usemtl duck.png
f  40/114/6 41/115/6 42/116/6
f  41/115/6 43/117/6 42/116/6

# Mesh 'meshes_7-0' with 2 faces
g meshes_7-0
usemtl duck.png
f  46/94/1 47/95/1 48/96/1
f  47/95/1 49/97/1 48/96/1

# Mesh 'meshes_7-1' with 2 faces
g meshes_7-1
usemtl duck.png
f  50/98/2 51/99/2 52/100/2
f  51/99/2 53/101/2 52/100/2

# Mesh 'meshes_7-2' with 2 faces
g meshes_7-2
usemtl duck.png
f  50/102/3 52/103/3 48/104/3
f  52/103/3 46/105/3 48/104/3

# Mesh 'meshes_7-3' with 2 faces
g meshes_7-3
usemtl duck.png
f  53/106/4 51/107/4 47/108/4
f  51/107/4 49/109/4 47/108/4

# Mesh 'meshes_7-4' with 2 faces
g meshes_7-4
usemtl duck.png
f  52/110/5 53/111/5 46/112/5
f  53/111/5 47/113/5 46/112/5

# Mesh 'meshes_7-5' with 2 faces
g meshes_7-5
usemtl duck.png
f  48/114/6 49/115/6 50/116/6
f  49/115/6 51/117/6 50/116/6

# Mesh 'meshes_8-0' with 2 faces
g meshes_8-0
usemtl duck.png
f  54/118/1 55/119/1 56/120/1
f  55/119/1 57/121/1 56/120/1

# Mesh 'meshes_8-1' with 2 faces
g meshes_8-1
usemtl duck.png
f  58/122/2 59/123/2 60/124/2
f  59/123/2 61/125/2 60/124/2

# Mesh 'meshes_8-2' with 2 faces
g meshes_8-2
usemtl duck.png
f  58/126/3 60/127/3 56/128/3
f  60/127/3 54/129/3 56/128/3

# Mesh 'meshes_8-3' with 2 faces
g meshes_8-3
usemtl duck.png
f  61/130/4 59/131/4 55/132/4
f  59/131/4 57/133/4 55/132/4

# Mesh 'meshes_8-4' with 2 faces
g meshes_8-4
usemtl duck.png
f  60/134/5 61/135/5 54/136/5
f  61/135/5 55/137/5 54/136/5

# Mesh 'meshes_8-5' with 2 faces
g meshes_8-5
usemtl duck.png
f  56/138/6 57/139/6 58/140/6
f  57/139/6 59/141/6 58/140/6

